<svg xmlns="http://www.w3.org/2000/svg" xmlns:xlink="http://www.w3.org/1999/xlink" width="2031" height="837" viewBox="0 0 1440 591" preserveAspectRatio="XMidYMid meet"><defs><linearGradient id="c" x1=".031%" x2="100%" y1="50.005%" y2="50.005%"><stop offset="0%" stop-color="#D83F26"/><stop offset="0%" stop-color="#FFC83E"/><stop offset="100%" stop-color="#FDBA12"/></linearGradient><linearGradient id="d" x1="-.021%" x2="99.963%" y1="49.996%" y2="49.996%"><stop offset="0%" stop-color="#A1CD3A"/><stop offset="22%" stop-color="#93C83E"/><stop offset="41%" stop-color="#8DC63F"/><stop offset="49%" stop-color="#8AC432"/><stop offset="69%" stop-color="#84BE17"/><stop offset="87%" stop-color="#80BB06"/><stop offset="100%" stop-color="#7FBA00"/></linearGradient><linearGradient id="e" x1="0%" x2="100.006%" y1="49.994%" y2="49.994%"><stop offset="0%" stop-color="#A1CD3A"/><stop offset="22%" stop-color="#93C83E"/><stop offset="41%" stop-color="#8DC63F"/><stop offset="49%" stop-color="#8AC432"/><stop offset="69%" stop-color="#84BE17"/><stop offset="87%" stop-color="#80BB06"/><stop offset="100%" stop-color="#7FBA00"/></linearGradient><linearGradient id="f" x1="50%" x2="50%" y1="100%" y2="0%"><stop offset="0%" stop-opacity="0"/><stop offset="100%"/></linearGradient><linearGradient id="g" x1="0%" x2="100%" y1="50%" y2="50%"><stop offset="0%" stop-opacity="0"/><stop offset="100%"/></linearGradient><path id="a" d="M0 0h2312v591H0z"/></defs><g fill="none" fill-rule="evenodd" transform="translate(-395)"><mask id="b" fill="#fff"><use xlink:href="#a"/></mask><use fill="#D8D8D8" xlink:href="#a"/><g mask="url(#b)"><g transform="translate(-832 -234)"><g transform="translate(0 19)"><rect width="4348.322" height="850.877" x=".51" y="6.807" fill="#F2F1F0" fill-rule="nonzero" rx="2.38"/><path d="M2156.01 388.77l-35.06 96.13.31-.84z"/><path fill="#E5E3E1" fill-rule="nonzero" d="M2620.6 538.52h77.43a3.4 3.4 0 002.4-5.82l-61.23-61.26a3.4 3.4 0 00-2.4-.99H2624a3.4 3.4 0 00-3.4 3.4v64.67zM2620.6 649.42c0 .9.37 1.77 1 2.4l48.7 48.74c.65.64 1.52 1 2.42.99h18.71c.91 0 1.78-.36 2.42-1l21-21.3a3.4 3.4 0 001-2.38v-94.1a3.4 3.4 0 00-3.4-3.4h-6.81a3.4 3.4 0 00-3.4 3.4V627a6.8 6.8 0 01-6.8 6.8H2641a6.8 6.8 0 01-6.8-6.8v-54.45a6.8 6.8 0 016.8-6.81h71.44a3.4 3.4 0 003.4-3.4v-6.81a3.4 3.4 0 00-3.4-3.4H2624a3.4 3.4 0 00-3.4 3.4l.01 93.88z"/><rect width="13.608" height="13.614" x="2620.604" y="443.222" fill="#E5E3E1" fill-rule="nonzero" rx="2"/><ellipse cx="2668.487" cy="381.959" fill="#E5E3E1" fill-rule="nonzero" rx="20.412" ry="20.421"/><path fill="#E5E3E1" fill-rule="nonzero" d="M2712.46 443.22h-61.24a3.4 3.4 0 00-3.4 3.4v12.85c0 .91.36 1.78 1 2.42l61.24 61.26a3.4 3.4 0 005.8-2.41v-74.11a3.4 3.4 0 00-3.4-3.4zM2636.03 423.74a3.4 3.4 0 002.42 5.82h74a3.4 3.4 0 003.41-3.4V283.2a3.4 3.4 0 00-3.4-3.4h-34.02a3.4 3.4 0 00-3.4 3.4v62.67a3.4 3.4 0 002.58 3.27 34.03 34.03 0 11-25.77 62.47 3.4 3.4 0 00-4.13.5l-11.69 11.62z"/><rect width="40.824" height="40.842" x="2647.82" y="579.362" fill="#E5E3E1" fill-rule="nonzero" rx="2"/><path fill="#E5E3E1" fill-rule="nonzero" d="M2620.6 763.15v34.28c0 .9.37 1.76 1 2.4l5.74 5.75a3.4 3.4 0 004.81 0l28.55-28.56c.63-.64.98-1.5.98-2.4V712.6c0-.9-.35-1.77-.98-2.41l-34.28-34.3a3.4 3.4 0 00-5.82 2.4v84.87zM2640.89 816.41l26.04-26.05a2 2 0 012.82 0l26.04 26.05a2 2 0 010 2.83l-26.04 26.05a2 2 0 01-2.82 0l-26.04-26.05a2 2 0 010-2.83zM2613.51 427.14l26.54-26.55a33.74 33.74 0 01-5.58-18.56c0-15.1 9.96-28.4 24.44-32.64a3.4 3.4 0 002.52-3.24V228.8a3.4 3.4 0 00-3.4-3.4h-44.52v201.74zM1491.43 459.47V446.7a3.4 3.4 0 00-3.4-3.4h-17a47.64 47.64 0 00-47.64 47.65v29.8a3.4 3.4 0 005.8 2.41l61.24-61.26c.64-.64 1-1.5 1-2.42zM1441.22 538.52h74.03a3.4 3.4 0 003.4-3.4v-61.27a3.4 3.4 0 00-3.4-3.4h-12.8c-.9 0-1.76.35-2.4.99l-61.23 61.26a3.4 3.4 0 002.4 5.82z"/><rect width="40.824" height="40.842" x="1532.257" y="334.31" fill="#E5E3E1" fill-rule="nonzero" rx="2"/><path fill="#E5E3E1" fill-rule="nonzero" d="M1205.67 752.94a3.4 3.4 0 003.4 3.4h88.45a3.4 3.4 0 003.4-3.4v-8.25a3.4 3.4 0 00-2.57-3.29 34.16 34.16 0 01-23.33-23.26 3.4 3.4 0 00-3.27-2.57h-62.68a3.4 3.4 0 00-3.4 3.4v33.97zM1588 316.65a3.4 3.4 0 003.4 4.05h59.93a3.4 3.4 0 003.4-3.4v-16.9a20.61 20.61 0 00-20.86-20.55 47.63 47.63 0 00-45.87 36.8zM1518.65 371.75V337.7a3.4 3.4 0 00-3.4-3.4h-94.44c-.9 0-1.76.35-2.4.99l-48.45 48.48c-.63.64-1 1.5-1 2.4v94.48a3.4 3.4 0 003.4 3.4h34.9a3.4 3.4 0 003.32-2.9 61.24 61.24 0 0160.44-51.55h17.01a3.4 3.4 0 003.4-3.4v-44.25a6.8 6.8 0 016.8-6.8h17.02a3.4 3.4 0 003.4-3.41zM1209.07 701.89h62.68a3.4 3.4 0 003.27-2.57 34.18 34.18 0 0123.33-23.35 3.4 3.4 0 002.57-3.27v-8.25a3.4 3.4 0 00-3.4-3.4h-88.45a3.4 3.4 0 00-3.4 3.4v34.04a3.4 3.4 0 003.4 3.4zM1265.9 250.8l19.6-19.6a3.4 3.4 0 00-2.42-5.8h-19.58a3.4 3.4 0 00-3.4 3.4v19.66a3.4 3.4 0 005.8 2.34zM1243.09 388.77h-42.4c-25.27 0-47.5 18.9-49.34 44.12a47.66 47.66 0 0051.03 51.05c25.21-1.8 44.13-24.06 44.13-49.35v-42.42a3.4 3.4 0 00-3.42-3.4zM1300.92 520.74V392.17a3.4 3.4 0 00-3.4-3.4h-34.02a3.4 3.4 0 00-3.4 3.4v44.24a60.82 60.82 0 01-11.67 35.88 3.4 3.4 0 00.29 4.39l46.4 46.4a3.4 3.4 0 005.8-2.34zM1406.38 320.7a3.4 3.4 0 003.4-3.4v-40.03c0-.9-.36-1.77-1-2.4l-48.44-48.54a3.4 3.4 0 00-2.42-.98H1312c-.9 0-1.76.35-2.4.98l-36.31 36.34a3.4 3.4 0 00-.71 3.62 19.85 19.85 0 011.19 6.7 20.42 20.42 0 01-11.62 18.35 3.5 3.5 0 00-2.04 3.06v77.3a3.4 3.4 0 003.4 3.4h34.02a3.4 3.4 0 003.4-3.4v-17.02a34.03 34.03 0 0134.02-34.04l71.44.06z"/><ellipse cx="1253.293" cy="273.046" fill="#E5E3E1" fill-rule="nonzero" rx="6.804" ry="6.807"/><path fill="#E5E3E1" fill-rule="nonzero" d="M1295.44 583.55a20.25 20.25 0 000 32.45 3.4 3.4 0 005.48-2.76v-26.93a3.4 3.4 0 00-5.48-2.76zM1154.64 592.98h33.1a20.4 20.4 0 0014.29-5.86l39.48-38.83a34.01 34.01 0 0123.8-9.77h17.73a3.4 3.4 0 002.42-5.82l-46.39-46.4a3.4 3.4 0 00-4.39-.3 60.9 60.9 0 01-71.7 0 3.4 3.4 0 00-4.4.3l-11.17 11.2a3.4 3.4 0 00-.5 4.13 33.74 33.74 0 014.29 16.47v71.47a3.4 3.4 0 003.44 3.4z"/><ellipse cx="1307.725" cy="708.696" fill="#E5E3E1" fill-rule="nonzero" rx="20.412" ry="20.421"/><path fill="#E5E3E1" fill-rule="nonzero" d="M1060.2 429.6h74.84a3.4 3.4 0 003.32-2.9 61.24 61.24 0 0160.43-51.55h44.23a3.4 3.4 0 003.4-3.4V337.7a3.4 3.4 0 00-3.4-3.4h-94.37c-.9 0-1.76.35-2.4.99l-88.45 88.49a3.4 3.4 0 002.4 5.82zM1151.23 228.8v88.5a3.4 3.4 0 003.4 3.4h88.46a3.4 3.4 0 003.4-3.4v-22.9a3.5 3.5 0 00-2.08-3.11 20.27 20.27 0 010-36.59 3.52 3.52 0 002.08-3.13V228.8a3.4 3.4 0 00-3.4-3.4h-88.45a3.4 3.4 0 00-3.4 3.4zM1726.17 443.22a3.4 3.4 0 00-3.4 3.4v61.27a3.4 3.4 0 003.4 3.4h6.8a3.4 3.4 0 003.4-3.4v-61.26a3.4 3.4 0 00-3.4-3.4h-6.8zM1613.9 228.8v36.37a3.4 3.4 0 004.2 3.3 59.8 59.8 0 0118.07-2.2c18.05.57 32.17 15.93 32.17 34.04v17.02a3.4 3.4 0 003.4 3.4h47.63a3.4 3.4 0 013.4 3.4v30.63a34.04 34.04 0 01-37.42 33.87c-17.68-1.7-30.62-17.63-30.62-35.38v-15.5a3.4 3.4 0 00-3.4-3.4h-61.24a3.4 3.4 0 00-3.4 3.4v44.24a6.8 6.8 0 01-6.8 6.81h-71.45a3.4 3.4 0 00-3.4 3.4v61.27a3.4 3.4 0 003.4 3.4h8.25a3.4 3.4 0 003.27-2.57 34.02 34.02 0 0132.7-24.66h190.86v-204.2h-126.21a3.4 3.4 0 00-3.4 3.36zM1686.16 443.22a3.4 3.4 0 00-2.4 5.8l19.6 19.6a3.4 3.4 0 005.8-2.4v-19.6a3.4 3.4 0 00-3.4-3.4h-19.6z"/><path fill="#E5E3E1" fill-rule="nonzero" d="M1423.4 283.26v34.03a3.4 3.4 0 003.4 3.4h146.62a61.27 61.27 0 0126.8-44.1V136.9a6.8 6.8 0 016.81-6.81h17.01a3.4 3.4 0 003.4-3.4v-6.81a3.4 3.4 0 00-3.4-3.4h-88.45a3.4 3.4 0 00-3.4 3.4v32.77a3.4 3.4 0 003.4 3.4h32.32a6.8 6.8 0 016.38 6.81v82.97a34.03 34.03 0 01-34.02 34.03h-113.48a3.4 3.4 0 00-3.4 3.39z"/><path fill="#E5E3E1" fill-rule="nonzero" d="M1540.32 266.24a20.42 20.42 0 0020.41-20.42v-72.75a3.4 3.4 0 00-3.4-3.4h-21.67a3.4 3.4 0 00-3.4 3.4v89.77a3.4 3.4 0 003.4 3.4h4.66zM1262.73 865.82h40.23c.9 0 1.76-.36 2.4-.99l89.03-89.07a3.4 3.4 0 00-2.41-5.8h-182.91a3.4 3.4 0 00-3.4 3.4v34.97a3.4 3.4 0 002.9 3.4 61.37 61.37 0 0150.85 51.3 3.4 3.4 0 003.31 2.79zM1692.81 374.76c9.7-1.89 16.35-10.96 16.35-20.85v-16.2a3.4 3.4 0 00-3.4-3.4h-34.02a3.4 3.4 0 00-3.4 3.4v17.02a20.42 20.42 0 0024.47 20.03z"/><ellipse cx="1471.021" cy="708.696" fill="#E5E3E1" fill-rule="nonzero" rx="20.412" ry="20.421"/><path fill="#E5E3E1" fill-rule="nonzero" d="M1617.3 538.52h17.02a20.4 20.4 0 0020.02-24.49c-1.9-9.7-10.96-16.35-20.82-16.35h-16.21a3.4 3.4 0 00-3.4 3.4v34.04a3.4 3.4 0 003.4 3.4zM1426.8 865.26h88.45a3.4 3.4 0 003.4-3.4v-34.93a3.4 3.4 0 00-2.91-3.31 61.25 61.25 0 01-51.52-60.47V744.7a3.4 3.4 0 00-2.57-3.29 34.16 34.16 0 01-23.34-23.26 3.4 3.4 0 00-3.27-2.57h-8.25a3.4 3.4 0 00-3.4 3.4v142.95a3.4 3.4 0 003.4 3.34zM1503.68 699.32a3.4 3.4 0 003.27 2.57h18.5a20.42 20.42 0 0020.41-20.42v-81.24c0-9.87 6.66-18.94 16.35-20.83a20.4 20.4 0 0124.48 20.03 6.8 6.8 0 1013.6 0v-43.9a3.4 3.4 0 00-3.4-3.4h-67.22c-.9 0-1.76.36-2.4 1l-60.8 60.85a3.4 3.4 0 00-.31 4.39 60.82 60.82 0 0111.66 35.87v18.46a3.4 3.4 0 002.57 3.27 34.21 34.21 0 0123.29 23.35zM1611.32 484.06h12.79a3.4 3.4 0 003.4-3.4v-34.03a3.4 3.4 0 00-3.4-3.4h-46.81a3.4 3.4 0 00-2.4 5.8l34.02 34.03c.64.64 1.5 1 2.4 1zM1600.3 495.1c0-.91-.37-1.77-1-2.4l-47.9-47.93a3.4 3.4 0 00-3.1-.99 20.42 20.42 0 00-16.04 19.86v71.48a3.4 3.4 0 003.4 3.4h61.23a3.4 3.4 0 003.4-3.4v-40.03zM1409.78 849.72v-61.93a3.4 3.4 0 00-5.8-2.4L1316.57 873h93.21v-23.28z"/><path fill="#E5E3E1" fill-rule="nonzero" d="M1732.97 552.13h-88.45a3.4 3.4 0 00-3.4 3.4v97.94c0 9.9 6.65 18.96 16.35 20.85a20.4 20.4 0 0024.47-20.03v-33.15a3.5 3.5 0 00-2.05-3.1 20.42 20.42 0 1117.74 0 3.5 3.5 0 00-2.08 3.1v31.53c0 17.75-12.94 33.66-30.62 35.38a34.01 34.01 0 01-37.42-33.86v-98.7a3.4 3.4 0 00-3.4-3.4h-6.8a3.4 3.4 0 00-3.4 3.4v43.07c0 9.89-6.66 18.96-16.35 20.83a20.4 20.4 0 01-24.48-20.02 6.8 6.8 0 10-13.6 0v82.05a34.03 34.03 0 01-34.03 34.03h-18.37a3.4 3.4 0 00-3.4 2.69 34.18 34.18 0 01-23.34 23.33 3.4 3.4 0 00-2.57 3.29v18.46a47.64 47.64 0 0036.78 46.34 3.4 3.4 0 004.05-3.4v-29.4a20.42 20.42 0 0120.41-20.42h140.16a3.4 3.4 0 003.4-2.92 61.37 61.37 0 0150.9-50.94 3.4 3.4 0 002.92-3.31V555.54a3.4 3.4 0 00-3.42-3.4zM1732.97 769.96h-32.88a3.4 3.4 0 00-3.4 4.07 47.72 47.72 0 0035.59 35.34 3.4 3.4 0 004.05-3.4v-32.6a3.4 3.4 0 00-3.36-3.41z"/><path fill="#E5E3E1" fill-rule="nonzero" d="M1679.3 769.96h-34.78a3.4 3.4 0 00-3.4 3.4v34.97a3.4 3.4 0 002.9 3.3 61.37 61.37 0 0150.73 50.77 3.4 3.4 0 003.32 2.9h34.9a3.4 3.4 0 003.4-3.4v-35.05a3.4 3.4 0 00-2.9-3.3 61.37 61.37 0 01-50.86-50.65 3.4 3.4 0 00-3.3-2.94z"/><ellipse cx="1688.748" cy="599.783" fill="#E5E3E1" fill-rule="nonzero" rx="6.804" ry="6.807"/><path fill="#E5E3E1" fill-rule="nonzero" d="M1732.97 524.9h-17a6.8 6.8 0 01-6.81-6.8v-23c0-.91-.36-1.77-1-2.4l-48.45-48.54a3.4 3.4 0 00-2.41-.99h-12.78a3.4 3.4 0 00-3.4 3.4v35.54a3.4 3.4 0 002.42 3.23 34.03 34.03 0 0124.8 32.76c0 5.4-1.33 10.73-3.87 15.5a3.4 3.4 0 003.02 4.92h65.48a3.4 3.4 0 003.4-3.4v-6.81a3.4 3.4 0 00-3.4-3.4zM1427.44 607.9a3.4 3.4 0 00-4.05 3.4v87.24a3.4 3.4 0 003.4 3.4h8.25a3.4 3.4 0 003.27-2.57 34.18 34.18 0 0123.34-23.35 3.4 3.4 0 002.57-3.27v-18.51a47.64 47.64 0 00-36.78-46.34zM1535.66 838.03h17a20.42 20.42 0 0020.42-20.42v-44.25a3.4 3.4 0 00-3.4-3.4h-30.62a6.8 6.8 0 00-6.8 6.8v57.87a3.4 3.4 0 003.4 3.4zM1736.38 719.96a3.4 3.4 0 00-4.05-3.4 47.64 47.64 0 00-35.72 35.73 3.4 3.4 0 003.4 4.05h32.96a3.4 3.4 0 003.4-3.4v-32.98z"/><path fill="#E5E3E1" fill-rule="nonzero" d="M1532.26 861.85a3.4 3.4 0 003.4 3.4h88.45a3.4 3.4 0 003.4-3.4v-88.49a3.4 3.4 0 00-3.4-3.4h-34.02a3.4 3.4 0 00-3.4 3.4v44.25a34.03 34.03 0 01-34.02 34.03h-17.01a3.4 3.4 0 00-3.4 3.4v6.81z"/><rect width="40.824" height="13.614" x="1368.961" y="497.678" fill="#E5E3E1" fill-rule="nonzero" rx="2"/><path fill="#E5E3E1" fill-rule="nonzero" d="M1409.78 119.89a3.4 3.4 0 00-3.4-3.4h-34.02a3.4 3.4 0 00-3.4 3.4v94.53c0 .9.36 1.78 1 2.42l48.45 48.46c.63.64 1.5 1 2.4 1h94.44a3.4 3.4 0 003.4-3.4v-34.03a3.4 3.4 0 00-3.4-3.4h-57.84a47.64 47.64 0 01-47.63-47.65v-57.93zM1317.93 647.43h30.62a6.8 6.8 0 006.8-6.8v-85.1a3.4 3.4 0 00-3.4-3.4h-34.02a3.4 3.4 0 00-3.4 3.4v88.5a3.4 3.4 0 003.4 3.4zM1355.35 436.41v-44.24a3.4 3.4 0 00-3.4-3.4h-34.02a3.4 3.4 0 00-3.4 3.4v88.5a3.4 3.4 0 003.4 3.4h34.02a3.4 3.4 0 003.4-3.4V436.4zM1355.35 518.1v-17.02a3.4 3.4 0 00-3.4-3.4h-34.02a3.4 3.4 0 00-3.4 3.4v34.04a3.4 3.4 0 003.4 3.4h34.02a3.4 3.4 0 003.4-3.4V518.1zM1360.34 374.15l34.02-34.04a3.4 3.4 0 00-2.42-5.8h-57a20.42 20.42 0 00-20.41 20.42v17.02a3.4 3.4 0 003.4 3.4h40c.9 0 1.77-.36 2.4-1zM1297.52 647.43a3.4 3.4 0 003.4-3.4v-8.25a3.4 3.4 0 00-2.57-3.29 34.03 34.03 0 010-65.43 3.4 3.4 0 002.57-3.27v-8.25a3.4 3.4 0 00-3.4-3.4h-32.17a20.4 20.4 0 00-14.3 5.85l-39.47 38.83a34.01 34.01 0 01-23.8 9.77h-40.27a106.19 106.19 0 00-79.4 35.1 3.4 3.4 0 002.5 5.74h226.9z"/><path fill="#E5E3E1" fill-rule="nonzero" d="M1409.78 654.24v-44.25a3.4 3.4 0 00-3.4-3.4h-34.02a3.4 3.4 0 00-3.4 3.4v30.64a20.42 20.42 0 01-20.41 20.42h-30.62a3.4 3.4 0 00-3.4 3.4v8.25a3.4 3.4 0 002.57 3.27 34.21 34.21 0 0123.28 23.35 3.4 3.4 0 003.27 2.57h62.73a3.4 3.4 0 003.4-3.4v-44.25zM1409.79 752.94v-34.03a3.4 3.4 0 00-3.4-3.4h-62.6a3.4 3.4 0 00-3.4 2.63 34.18 34.18 0 01-23.34 23.33 3.4 3.4 0 00-2.57 3.29V753a3.4 3.4 0 003.4 3.4h88.45a3.4 3.4 0 003.46-3.47zM1452.45 604.65a3.4 3.4 0 004.38-.3l46.4-46.41a3.4 3.4 0 00-2.4-5.8h-70.63a20.4 20.4 0 01-8.75-2.05l-.18-.19c-4.02-1.99-7.27-5.25-9.26-9.27l-.18-.17a20.16 20.16 0 01-2.05-8.75s.87-6.8-6.8-6.8h-30.62a3.4 3.4 0 00-3.4 3.4v61.26a3.4 3.4 0 003.4 3.4h44.23a60.76 60.76 0 0135.86 11.68z"/><ellipse cx="2137.403" cy="450.029" fill="#D43F27" fill-rule="nonzero" rx="6.804" ry="6.807"/><ellipse cx="2151.011" cy="450.029" fill="#599942" fill-rule="nonzero" rx="6.804" ry="6.807"/><ellipse cx="2151.011" cy="463.643" fill="#F7904D" fill-rule="nonzero" rx="6.804" ry="6.807"/><ellipse cx="2137.403" cy="463.643" fill="#2E76BC" fill-rule="nonzero" rx="6.804" ry="6.807"/><path fill="#F2F1F0" fill-rule="nonzero" d="M2062.56 524.9h-40.7v13.62h40.7z"/><path fill="#E5E3E1" fill-rule="nonzero" d="M2362.05 459.47V446.7a3.4 3.4 0 00-3.4-3.4h-17a47.64 47.64 0 00-47.64 47.65v29.8a3.4 3.4 0 005.82 2.41l61.24-61.26c.63-.64.99-1.51.98-2.42zM2311.86 538.52h74a3.4 3.4 0 003.4-3.4v-61.27a3.4 3.4 0 00-3.4-3.4h-12.77c-.9 0-1.77.35-2.41.99l-61.24 61.26a3.4 3.4 0 002.42 5.82z"/><rect width="40.824" height="40.842" x="2402.877" y="334.31" fill="#E5E3E1" fill-rule="nonzero" rx="2"/><path fill="#E5E3E1" fill-rule="nonzero" d="M2076.29 752.94a3.4 3.4 0 003.4 3.4h88.45a3.4 3.4 0 003.4-3.4v-8.25a3.4 3.4 0 00-2.57-3.29 34.13 34.13 0 01-23.32-23.26 3.4 3.4 0 00-3.28-2.57h-62.68a3.4 3.4 0 00-3.4 3.4v33.97zM2458.62 316.65a3.4 3.4 0 003.4 4.05H2522a3.4 3.4 0 003.4-3.4v-16.9a20.61 20.61 0 00-20.85-20.55 47.63 47.63 0 00-45.93 36.8zM2079.69 701.89h62.68a3.4 3.4 0 003.28-2.57 34.16 34.16 0 0123.32-23.35 3.4 3.4 0 002.57-3.27v-8.25a3.4 3.4 0 00-3.4-3.4h-88.45a3.4 3.4 0 00-3.4 3.4v34.04a3.4 3.4 0 003.4 3.4zM2136.54 250.8l19.57-19.6a3.4 3.4 0 00-2.4-5.8h-19.59a3.4 3.4 0 00-3.4 3.4v19.66a3.4 3.4 0 005.82 2.34z"/><ellipse cx="2123.914" cy="273.046" fill="#E5E3E1" fill-rule="nonzero" rx="6.804" ry="6.807"/><path fill="#E5E3E1" fill-rule="nonzero" d="M2166.08 583.55a20.24 20.24 0 000 32.45 3.4 3.4 0 005.46-2.76v-26.93a3.4 3.4 0 00-5.46-2.76z"/><ellipse cx="2178.346" cy="708.696" fill="#E5E3E1" fill-rule="nonzero" rx="20.412" ry="20.421"/><path fill="#E5E3E1" fill-rule="nonzero" d="M2021.85 228.8v88.5a3.4 3.4 0 003.4 3.4h88.46a3.4 3.4 0 003.4-3.4v-22.9a3.5 3.5 0 00-2.08-3.11 20.27 20.27 0 010-36.59 3.52 3.52 0 002.08-3.13V228.8a3.4 3.4 0 00-3.4-3.4h-88.45a3.4 3.4 0 00-3.4 3.4zM1749.7 535.12a3.4 3.4 0 003.4 3.4h74.02a3.4 3.4 0 002.4-5.82l-61.23-61.26a3.4 3.4 0 00-2.4-.99h-12.8a3.4 3.4 0 00-3.4 3.4v61.27zM1749.7 649.42c0 .9.36 1.77 1 2.4l48.7 48.74c.64.64 1.5 1 2.41.99h18.71c.91 0 1.78-.36 2.42-1l21-21.3a3.4 3.4 0 001-2.38v-94.1a3.4 3.4 0 00-3.4-3.4h-6.81a3.4 3.4 0 00-3.4 3.4V627a6.8 6.8 0 01-6.8 6.8h-54.44a6.8 6.8 0 01-6.8-6.8v-54.45a6.8 6.8 0 016.8-6.81h71.44a3.4 3.4 0 003.4-3.4v-6.81a3.4 3.4 0 00-3.4-3.4h-88.45a3.4 3.4 0 00-3.4 3.4l.01 93.88z"/><rect width="13.608" height="13.614" x="1749.695" y="443.222" fill="#E5E3E1" fill-rule="nonzero" rx="2"/><path fill="#E5E3E1" fill-rule="nonzero" d="M1807.53 266.24h34.02a3.4 3.4 0 003.4-3.4v-87.18a3.4 3.4 0 00-4.06-3.4 47.64 47.64 0 00-36.5 46.26h-.26v44.25a3.4 3.4 0 003.4 3.47zM1841.55 443.22h-61.24a3.4 3.4 0 00-3.4 3.4v12.85c0 .91.36 1.78 1 2.42l61.24 61.26a3.4 3.4 0 005.8-2.41v-74.11a3.4 3.4 0 00-3.4-3.4zM2596.8 443.22a3.4 3.4 0 00-3.41 3.4v61.27a3.4 3.4 0 003.4 3.4h6.8a3.4 3.4 0 003.4-3.4v-61.26a3.4 3.4 0 00-3.4-3.4h-6.8zM2484.52 228.8v36.37a3.4 3.4 0 004.22 3.3 59.63 59.63 0 0118.05-2.2c18.07.57 32.17 15.93 32.17 34.04v17.02a3.4 3.4 0 003.4 3.4h47.63a3.4 3.4 0 013.4 3.4v30.63a34.04 34.04 0 01-37.42 33.87c-17.68-1.7-30.62-17.63-30.62-35.38v-15.5a3.4 3.4 0 00-3.4-3.4h-61.24a3.4 3.4 0 00-3.4 3.4v44.24a6.8 6.8 0 01-6.8 6.81h-71.45a3.4 3.4 0 00-3.4 3.4v61.27a3.4 3.4 0 003.4 3.4h8.25a3.4 3.4 0 003.29-2.57 34.02 34.02 0 0132.69-24.66h190.8v-204.2h-126.16a3.4 3.4 0 00-3.4 3.36zM2062.68 718.9a3.4 3.4 0 00-3.4-3.4h-22.83a3.4 3.4 0 00-3.1 2.06 20.41 20.41 0 11-27.21-27.23 3.4 3.4 0 002.06-3.1v-22.78a3.4 3.4 0 00-3.4-3.4h-77.57a3.4 3.4 0 00-3.06 1.85 98.74 98.74 0 00-11.04 40.84 101.38 101.38 0 0028.08 75.43 90.9 90.9 0 007.62 7.1 3.4 3.4 0 005.58-2.07 34.02 34.02 0 0133.44-27.86h71.44a3.4 3.4 0 003.4-3.4l-.01-34.03zM2556.8 443.22a3.4 3.4 0 00-2.42 5.8l19.6 19.6a3.4 3.4 0 005.8-2.4v-19.6a3.4 3.4 0 00-3.4-3.4h-19.58z"/><path fill="#E5E3E1" fill-rule="nonzero" d="M2062.68 773.36a3.4 3.4 0 00-3.4-3.4h-71.45a20.42 20.42 0 00-20.4 20.42v6.48a3.4 3.4 0 001.88 3.1 101.38 101.38 0 0045.74 10.84h44.23a3.4 3.4 0 003.4-3.4v-34.04z"/><rect width="40.824" height="40.842" x="1776.911" y="579.362" fill="#E5E3E1" fill-rule="nonzero" rx="2"/><rect width="13.608" height="13.614" x="1804.382" y="715.162" fill="#E5E3E1" fill-rule="nonzero" rx="2"/><path fill="#E5E3E1" fill-rule="nonzero" d="M1749.7 763.15v34.28c0 .9.36 1.76 1 2.4l5.73 5.75a3.4 3.4 0 004.81 0l28.55-28.56c.63-.64.98-1.5.98-2.4V712.6c0-.9-.35-1.77-.98-2.41l-34.28-34.3a3.4 3.4 0 00-5.82 2.4v84.87zM1840.03 810.8h53.52a20.42 20.42 0 0020.41-20.42v-24.81c0-.54-.15-1.08-.4-1.55a115.06 115.06 0 01-14.04-60.9c.6-12.84 3.4-25.47 8.27-37.36a3.4 3.4 0 00-3.1-4.71h-42.73a3.4 3.4 0 00-3.4 3.4v16.6c0 1.8-.7 3.52-1.96 4.8l-24.02 24.3a3.4 3.4 0 00-.98 2.4v23.03a6.8 6.8 0 01-6.8 6.81h-17.02a3.4 3.4 0 00-3.4 3.4v29.34c0 .9.36 1.78 1 2.42l32.32 32.25a3.4 3.4 0 002.33 1zM1769.93 816.36l26.04-26.05a2 2 0 012.82 0l26.04 26.05a2 2 0 010 2.83l-26.04 26.05a2 2 0 01-2.82 0l-26.04-26.05a2 2 0 010-2.83zM2133.35 865.82h40.2c.9 0 1.76-.36 2.4-.99l89.03-89.07a3.4 3.4 0 00-2.4-5.8h-182.9a3.4 3.4 0 00-3.4 3.4v34.97a3.4 3.4 0 002.91 3.4 61.37 61.37 0 0150.85 51.3 3.4 3.4 0 003.31 2.79zM2563.4 374.76c9.7-1.89 16.35-10.96 16.35-20.85v-16.2a3.4 3.4 0 00-3.4-3.4h-34.03a3.4 3.4 0 00-3.4 3.4v17.02a20.42 20.42 0 0024.48 20.03z"/><ellipse cx="2341.641" cy="708.696" fill="#E5E3E1" fill-rule="nonzero" rx="20.412" ry="20.421"/><path fill="#E5E3E1" fill-rule="nonzero" d="M2487.93 538.52h17a20.4 20.4 0 0020.03-24.49c-1.9-9.7-10.96-16.35-20.82-16.35h-16.21a3.4 3.4 0 00-3.4 3.4v34.04a3.4 3.4 0 003.4 3.4zM2297.42 865.26h88.45a3.4 3.4 0 003.4-3.4v-34.93a3.4 3.4 0 00-2.9-3.31 61.25 61.25 0 01-51.53-60.47V744.7a3.4 3.4 0 00-2.57-3.29 34.13 34.13 0 01-23.32-23.26 3.4 3.4 0 00-3.28-2.57h-8.25a3.4 3.4 0 00-3.4 3.4v142.95a3.4 3.4 0 003.4 3.34zM2374.35 699.32a3.4 3.4 0 003.27 2.57h18.45a20.42 20.42 0 0020.42-20.42v-81.24c0-9.87 6.65-18.94 16.34-20.83a20.4 20.4 0 0124.48 20.03 6.8 6.8 0 1013.6 0v-43.9a3.4 3.4 0 00-3.4-3.4h-67.2c-.9 0-1.77.35-2.42 1l-60.72 60.85a3.4 3.4 0 00-.3 4.39 60.82 60.82 0 0111.66 35.87v18.46a3.4 3.4 0 002.57 3.27 34.18 34.18 0 0123.25 23.35zM2481.96 484.06h12.77a3.4 3.4 0 003.4-3.4v-34.03a3.4 3.4 0 00-3.4-3.4h-46.8a3.4 3.4 0 00-2.4 5.8l34.01 34.03c.64.64 1.51 1 2.42 1zM2470.92 495.1c0-.9-.36-1.77-.99-2.4l-47.9-47.93a3.4 3.4 0 00-3.1-.99 20.42 20.42 0 00-16.05 19.86v71.48a3.4 3.4 0 003.4 3.4h61.23a3.4 3.4 0 003.4-3.4v-40.03zM2280.4 849.72v-61.93a3.4 3.4 0 00-5.8-2.4L2187.1 873h93.3v-23.28z"/><path fill="#E5E3E1" fill-rule="nonzero" d="M2603.6 552.13h-88.46a3.4 3.4 0 00-3.4 3.4v97.94c0 9.9 6.65 18.96 16.35 20.85a20.4 20.4 0 0024.47-20.03v-33.15a3.4 3.4 0 00-2.05-3.1 20.42 20.42 0 1117.74 0 3.5 3.5 0 00-2.08 3.12v31.53c0 17.75-12.94 33.66-30.62 35.38a34.01 34.01 0 01-37.42-33.86v-98.7a3.4 3.4 0 00-3.4-3.41h-6.8a3.4 3.4 0 00-3.4 3.4v43.08c0 9.88-6.66 18.95-16.35 20.82a20.4 20.4 0 01-24.48-20 6.8 6.8 0 10-13.6 0v82.03a34.03 34.03 0 01-34.03 34.04h-18.45a3.4 3.4 0 00-3.27 2.57 34.16 34.16 0 01-23.34 23.33 3.4 3.4 0 00-2.56 3.28v18.47a47.64 47.64 0 0036.77 46.34 3.4 3.4 0 004.05-3.4v-29.3a20.42 20.42 0 0120.41-20.42h140.11a3.4 3.4 0 003.4-2.92 61.39 61.39 0 0150.91-50.94 3.4 3.4 0 002.91-3.31V555.54a3.4 3.4 0 00-3.42-3.4zM2603.6 769.96h-32.89a3.4 3.4 0 00-3.4 4.07 47.72 47.72 0 0035.6 35.34 3.4 3.4 0 004.04-3.4v-32.6a3.4 3.4 0 00-3.36-3.41z"/><path fill="#E5E3E1" fill-rule="nonzero" d="M2549.93 769.96h-34.79a3.4 3.4 0 00-3.4 3.4v34.97a3.4 3.4 0 002.9 3.3 61.37 61.37 0 0150.73 50.77 3.4 3.4 0 003.32 2.9h34.9a3.4 3.4 0 003.4-3.4v-35.05a3.4 3.4 0 00-2.9-3.3 61.37 61.37 0 01-50.86-50.65 3.4 3.4 0 00-3.3-2.94z"/><ellipse cx="2559.369" cy="599.783" fill="#E5E3E1" fill-rule="nonzero" rx="6.804" ry="6.807"/><path fill="#E5E3E1" fill-rule="nonzero" d="M2620.6 524.9h-34.02a6.8 6.8 0 01-6.8-6.8v-23c0-.9-.35-1.77-.99-2.4l-48.46-48.54a3.4 3.4 0 00-2.4-.99h-12.79a3.4 3.4 0 00-3.4 3.4v35.54a3.4 3.4 0 002.57 3.26 34.03 34.03 0 0124.65 32.73 33.2 33.2 0 01-3.81 15.42 3.4 3.4 0 002.96 5h82.5v-13.61zM1953.81 873v-64.33a3.3 3.3 0 00-1.53-2.79 115.68 115.68 0 01-20.94-17.24 2.21 2.21 0 00-3.77 1.82 34.03 34.03 0 01-34.02 34.04h-53.52c-.9 0-1.76.35-2.4.99l-28.15 28.18a3.4 3.4 0 000 4.85l7.06 6.8h38.58a3.4 3.4 0 013.4 3.4V873h95.3zM2298.04 607.9a3.4 3.4 0 00-4.04 3.4v87.24a3.4 3.4 0 003.4 3.4h8.25a3.4 3.4 0 003.28-2.57 34.16 34.16 0 0123.32-23.35 3.4 3.4 0 002.57-3.27v-18.51a47.64 47.64 0 00-36.78-46.34zM2406.28 838.03h17a20.42 20.42 0 0020.42-20.42v-44.25a3.4 3.4 0 00-3.4-3.4h-30.62a6.8 6.8 0 00-6.8 6.8v57.87a3.4 3.4 0 003.4 3.4zM2607 719.96a3.4 3.4 0 00-4.03-3.4 47.64 47.64 0 00-35.73 35.73 3.4 3.4 0 003.4 4.05h32.95a3.4 3.4 0 003.4-3.4v-32.98z"/><path fill="#E5E3E1" fill-rule="nonzero" d="M2402.88 861.85a3.4 3.4 0 003.4 3.4h88.45a3.4 3.4 0 003.4-3.4v-88.49a3.4 3.4 0 00-3.4-3.4h-34.02a3.4 3.4 0 00-3.4 3.4v44.25a34.03 34.03 0 01-34.02 34.03h-17.01a3.4 3.4 0 00-3.4 3.4v6.81zM1916.4 225.4a3.4 3.4 0 00-3.41 3.4v38.6c0 1.8.71 3.53 2 4.81l47.45 47.48c.64.64 1.5 1 2.41 1h40a3.4 3.4 0 003.4-3.4V228.8a3.4 3.4 0 00-3.4-3.4h-88.46zM2188.55 647.43h30.62a6.8 6.8 0 006.8-6.8v-85.1a3.4 3.4 0 00-3.4-3.4h-34.02a3.4 3.4 0 00-3.4 3.4v88.5a3.4 3.4 0 003.4 3.4z"/><path fill="#E5E3E1" fill-rule="nonzero" d="M1858.56 218.59v98.7a3.4 3.4 0 003.4 3.4H1936a3.4 3.4 0 002.4-5.81l-33.04-33.04a20.43 20.43 0 01-5.97-14.43V218.6h.26a47.64 47.64 0 00-37.05-46.4 3.4 3.4 0 00-4.03 3.4v43zM2168.14 647.43a3.4 3.4 0 003.4-3.4v-8.25a3.4 3.4 0 00-2.57-3.29 34.03 34.03 0 010-65.43 3.4 3.4 0 002.57-3.27v-8.25a3.4 3.4 0 00-3.4-3.4h-32.15a20.4 20.4 0 00-14.32 5.85l-39.46 38.83a34.01 34.01 0 01-23.82 9.77h-40.21a106.2 106.2 0 00-79.4 35.1 3.4 3.4 0 002.5 5.74h226.91-.05zM2062.68 664.45a3.4 3.4 0 00-3.4-3.4h-34.02a3.4 3.4 0 00-3.4 3.4v22.84a3.5 3.5 0 002.07 3.11c4.1 2 7.4 5.31 9.4 9.41a3.5 3.5 0 003.12 2.08h22.83a3.4 3.4 0 003.4-3.4v-34.04zM2280.4 654.24v-44.25a3.4 3.4 0 00-3.4-3.4h-34.02a3.4 3.4 0 00-3.4 3.4v30.64a20.42 20.42 0 01-20.41 20.42h-30.62a3.4 3.4 0 00-3.4 3.4v8.25a3.4 3.4 0 002.57 3.27 34.18 34.18 0 0123.34 23.35 3.4 3.4 0 003.26 2.57H2277a3.4 3.4 0 003.4-3.4v-44.25zM2280.4 752.94v-34.03a3.4 3.4 0 00-3.4-3.4h-62.68a3.4 3.4 0 00-3.26 2.56 34.16 34.16 0 01-23.34 23.33 3.4 3.4 0 00-2.57 3.29v8.25a3.4 3.4 0 003.4 3.4H2277a3.4 3.4 0 003.4-3.4z"/><ellipse cx="2015.05" cy="708.696" fill="#E5E3E1" fill-rule="nonzero" rx="6.804" ry="6.807"/><path fill="#E5E3E1" fill-rule="nonzero" d="M2371.44 552.13h-70.62a20.4 20.4 0 01-8.75-2.04l-.17-.19a20.42 20.42 0 01-9.27-9.27l-.18-.17a20.43 20.43 0 01-2.04-8.75c.03-.4.03-.8 0-1.19v-56.67a3.4 3.4 0 00-3.4-3.4h-34.03a3.4 3.4 0 00-3.4 3.4v115.72a3.4 3.4 0 003.4 3.4h44.23a60.76 60.76 0 0135.86 11.68 3.4 3.4 0 004.38-.3l46.4-46.41a3.4 3.4 0 00-2.4-5.8z"/><ellipse cx="1906.442" cy="572.555" fill="#E5E3E1" fill-rule="nonzero" rx="6.804" ry="6.807"/><rect width="13.608" height="40.842" x="1926.479" y="443.222" fill="#E5E3E1" fill-rule="nonzero" rx="2"/><path fill="#E5E3E1" fill-rule="nonzero" d="M1872.05 375.15h13.6v54.46h-13.6z"/><ellipse cx="1906.067" cy="436.415" fill="#E5E3E1" fill-rule="nonzero" rx="6.804" ry="6.807"/><path fill="#E5E3E1" fill-rule="nonzero" d="M2355.13 409.08c-.03 7-1.26 13.95-3.64 20.53h7.16a3.4 3.4 0 003.28-3.13V375.8a30.43 30.43 0 0127.34-30.43v-7.66a3.4 3.4 0 00-3.4-3.4h-94.43c-.9 0-1.77.35-2.41.99l-6.8 6.8a3.4 3.4 0 002.41 5.8h9.08a61.35 61.35 0 0161.41 61.18zM2293.9 402.38h-10.21a3.4 3.4 0 00-3.4 3.4v6.81a3.4 3.4 0 003.4 3.4h10.2a6.8 6.8 0 000-13.61zM1831.22 497.68a27.22 27.22 0 0027.22 27.23v-27.23h-27.22zM1831.22 361.54h-37.3a3.4 3.4 0 01-3.4-3.4V229.61a3.88 3.88 0 00-3.4-4.22h-44.52v204.2h112.44a3.4 3.4 0 003.4-3.4v-61.26a3.4 3.4 0 00-3.4-3.4h-23.82z"/><path fill="#E5E3E1" fill-rule="nonzero" d="M1848.35 334.31a3.4 3.4 0 01-3.4-3.4v-47.65a3.4 3.4 0 00-3.4-3.4h-34.02a3.4 3.4 0 00-3.4 3.4l-.1 61.26a3.4 3.4 0 003.4 3.4h47.62a3.4 3.4 0 003.4-3.4v-6.8a3.4 3.4 0 00-3.4-3.41h-6.7zM2144.27 347.28a43.82 43.82 0 0125.67 8.25 1 1 0 001.6-.8 34.03 34.03 0 0134.02-34.03H2277a3.4 3.4 0 003.4-3.4v-40.03c0-.9-.35-1.76-.98-2.4l-48.46-48.54a3.4 3.4 0 00-2.4-.98h-45.93c-.9 0-1.77.35-2.41.98l-36.32 36.34a3.4 3.4 0 00-.71 3.62c.78 2.15 1.19 4.42 1.19 6.7-.04 7.86-4.58 15-11.67 18.37a3.4 3.4 0 00-1.94 3.04v53.57a1 1 0 001.27.96c3.99-1.11 8.1-1.67 12.23-1.65zM1916.4 538.52a3.4 3.4 0 00-3.41 3.4v2.49h.26v6.72c0 1.31.76 2.5 1.95 3.06a20.42 20.42 0 11-27.1 27.1 3.4 3.4 0 00-3.02-1.93h-23.1a3.4 3.4 0 00-3.4 3.4v61.27a3.4 3.4 0 003.4 3.4h53.6a3.4 3.4 0 002.77-1.51 117.17 117.17 0 0134.02-33.65 3.3 3.3 0 001.53-2.79v-67.56a3.4 3.4 0 00-3.4-3.4h-34.1z"/><path fill="#E5E3E1" fill-rule="nonzero" d="M1895.98 538.52h-34.02a3.4 3.4 0 00-3.4 3.4v20.42a3.4 3.4 0 003.4 3.4h23.08a3.4 3.4 0 003.05-1.9c2-4.24 5.4-7.65 9.64-9.66a3.4 3.4 0 001.9-3.03v-6.81h-.25v-2.48a3.4 3.4 0 00-3.4-3.34zM1967.42 541.92v57.1a3.4 3.4 0 004.66 3.11 121.02 121.02 0 0133.12-8.34 3.4 3.4 0 003.05-3.4v-48.47a3.4 3.4 0 00-3.4-3.4h-34.03a3.4 3.4 0 00-3.4 3.4zM2257.6 347.52l7.38-7.4a3.4 3.4 0 00-2.4-5.81h-57.02a20.42 20.42 0 00-20.41 20.42v17.02a3.4 3.4 0 003.4 3.4h35.38c1.5 0 2.83-1 3.25-2.45a34.02 34.02 0 0128.4-24.23c.76-.1 1.46-.43 2.02-.95zM2494.73 116.49h-88.45a3.4 3.4 0 00-3.4 3.4v34.03a3.4 3.4 0 003.4 3.4h30.92a6.8 6.8 0 016.38 6.81v81.69a34.03 34.03 0 01-34.02 34.03h-112.14a3.4 3.4 0 00-3.4 3.4v34.04a3.4 3.4 0 003.4 3.4h146.69a61.27 61.27 0 0126.8-44.1v-64.8h13.5v-81.7h10.32a3.4 3.4 0 003.4-3.4v-6.8a3.4 3.4 0 00-3.4-3.4z"/><path fill="#E5E3E1" fill-rule="nonzero" d="M2385.87 225.4H2249.2l39.82 39.84c.64.64 1.5 1 2.41 1h94.43a3.4 3.4 0 003.4-3.4V228.8a3.4 3.4 0 00-3.4-3.4zM2402.88 225.4v37.44a3.4 3.4 0 003.4 3.4h4.68a20.42 20.42 0 0020.4-20.42V225.4h-28.48zM2304.07 443.22h.06l-.05-.03z"/><path fill="#E5E3E1" fill-rule="nonzero" d="M2293.9 361.44l-34.03.2a20.42 20.42 0 00-20.3 20.42v71.37a3.4 3.4 0 003.4 3.4h46.55a3.4 3.4 0 002.78-1.44 60.77 60.77 0 0142.32-25.07 3.4 3.4 0 002.73-1.92 47.16 47.16 0 004.27-19.32 47.66 47.66 0 00-47.73-47.64zm-.6 68.17h-23.22a3.4 3.4 0 01-3.4-3.4v-34.04a3.4 3.4 0 013.4-3.4h23.81a20.4 20.4 0 0120.42 22.37 20.82 20.82 0 01-21.01 18.47zM2021.74 416h64.2a3.4 3.4 0 003.19-2.25l12.93-35.52.66-1.84c.15-.42.4-.81.56-1.24a43.97 43.97 0 0112.54-17.46 3.22 3.22 0 001.17-2.48v-17.5a3.4 3.4 0 00-3.4-3.4h-88.45a3.4 3.4 0 00-3.4 3.4v20.42a3.4 3.4 0 01-3.4 3.4h-30.62a34.03 34.03 0 00-34.02 34.04v17.02a3.4 3.4 0 003.4 3.4h64.64zM2222.57 497.68h-20.53a3.4 3.4 0 00-3.4 3.4v6.8a3.4 3.4 0 01-3.4 3.41h-6.69a3.4 3.4 0 00-3.4 3.4v20.43a3.4 3.4 0 003.4 3.4h34.02a3.4 3.4 0 003.4-3.4v-34.04a3.4 3.4 0 00-3.4-3.4zM1858.44 494.27v-47.64a3.4 3.4 0 00-3.4-3.4h-74.73a3.4 3.4 0 00-3.4 3.4v12.84c0 .91.36 1.78 1 2.42l62.06 62.08c.64.64 1.5 1 2.41 1h84.1c7.51 0 13.6-6.1 13.6-13.61v-10.21a3.4 3.4 0 00-3.4-3.4h-74.84a3.4 3.4 0 01-3.4-3.48z"/><path fill="#E5E3E1" fill-rule="nonzero" d="M1906.07 456.84c-7.86-.04-15-4.59-18.36-11.7a3.55 3.55 0 00-3.23-1.92h-9.03a3.4 3.4 0 00-3.4 3.4v34.04a3.4 3.4 0 003.4 3.4h34.02a3.4 3.4 0 003.4-3.4v-20.71a3.4 3.4 0 00-3.88-3.4c-.96.17-1.94.27-2.92.29zM1875.45 334.31a3.4 3.4 0 00-3.4 3.4v88.5a3.4 3.4 0 003.4 3.4h9.03a3.54 3.54 0 003.23-1.94 20.28 20.28 0 0136.73 0 3.52 3.52 0 003.21 1.94h9.04a3.4 3.4 0 003.4-3.4v-33.34a48.11 48.11 0 0147.63-44.95h17a3.4 3.4 0 003.4-3.4v-6.8a3.4 3.4 0 00-3.4-3.41h-129.27z"/><rect width="95.256" height="54.456" x="1994.519" y="429.608" fill="#E5E3E1" fill-rule="nonzero" rx="2"/><path fill="#E5E3E1" fill-rule="nonzero" d="M2089.77 507.89v-6.8a3.4 3.4 0 00-3.4-3.41h-20.4a3.4 3.4 0 00-3.41 3.4v30.63a6.8 6.8 0 01-6.8 6.81h-30.5a3.4 3.4 0 00-3.4 3.4v47.65a3.4 3.4 0 003.4 3.4h33.1a20.4 20.4 0 0014.3-5.85l39.47-38.83a34.01 34.01 0 0123.81-9.77H2168a3.4 3.4 0 003.4-3.4V514.7a3.4 3.4 0 00-3.4-3.4h-74.84a3.4 3.4 0 01-3.39-3.41z"/><path fill="#E5E3E1" fill-rule="nonzero" d="M1980.91 494.27v-61.26a3.4 3.4 0 00-3.4-3.4h-20.41a3.4 3.4 0 00-3.4 3.4v64.67a27.22 27.22 0 0027.21 27.23h64.64a3.4 3.4 0 003.4-3.4v-20.43a3.4 3.4 0 00-3.4-3.4h-61.24a3.4 3.4 0 01-3.4-3.4zM2222.45 388.77h-61.68a6.81 6.81 0 000 13.61h34.47a3.4 3.4 0 013.4 3.4v74.88a3.4 3.4 0 003.4 3.4h20.41a3.4 3.4 0 003.4-3.4v-88.5a3.4 3.4 0 00-3.4-3.4z"/><path fill="#E5E3E1" fill-rule="nonzero" d="M2021.73 524.9h1v13.62h-1zM2182.2 411.54h-27.74a6.8 6.8 0 00-6.38 4.47l-3.4 9.12a6.8 6.8 0 01-6.4 4.48h-29.44a3.4 3.4 0 00-3.4 3.4v61.26a3.4 3.4 0 003.4 3.4h73.3a3.4 3.4 0 003.4-3.4v-79.33a3.4 3.4 0 00-3.34-3.4zM2163.14 367.44c-3.77-2.96-8.2-4.99-12.91-5.9h-6.02c-13 0-24.26 7.28-28.72 19.52l-11.07 30.48s.1 0 0 0a5.66 5.66 0 005.85 4.42h15.04a10.38 10.38 0 007.93-4.46l12.43-34.15a3.4 3.4 0 013.2-2.23h11.24a4.46 4.46 0 003.03-7.68z"/><ellipse cx="2382.465" cy="368.345" fill="#E5E3E1" fill-rule="nonzero" rx="6.804" ry="6.807"/></g><path fill="#28A7E9" fill-rule="nonzero" d="M2266.64 510H2253V394h40.9a34.1 34.1 0 0134.1 34.12 34.1 34.1 0 01-34.1 34.12v-13.65a20.46 20.46 0 000-40.94h-27.26V510z"/><path fill="#D83F26" fill-rule="nonzero" d="M2226.8 476H2138v-13.57h88.8c7.55 0 13.67-6.08 13.67-13.57v-47.32c0-11.2 9.1-20.29 20.37-20.35L2295 381v13.57l-34.16.19a6.8 6.8 0 00-6.83 6.78v47.32a27.23 27.23 0 01-27.2 27.14z"/><path fill="#744FA0" fill-rule="nonzero" d="M2497.9 550l-102.63-156.24a6.8 6.8 0 1111.37-7.46l77.65 118.2v-89.12a20.4 20.4 0 0120.42-20.4H4349.2a6.8 6.8 0 110 13.6H2504.71a6.8 6.8 0 00-6.8 6.8V550z"/><path fill="#FFC20C" fill-rule="nonzero" d="M2362 544l-23.18-64-12.82 4.69 21.47 59.31z"/><path fill="#744FA0" fill-rule="nonzero" d="M1947.4 544h-81.46a33.95 33.95 0 01-33.94-33.96V387.8a6.79 6.79 0 1113.58 0v122.25a20.37 20.37 0 0020.36 20.38h81.45a6.79 6.79 0 006.8-6.8V414.97a33.95 33.95 0 0133.93-33.96h61.1a6.79 6.79 0 010 13.58h-61.1a20.37 20.37 0 00-20.36 20.38v108.67a20.37 20.37 0 01-20.37 20.37z"/><path fill="#FFC20E" fill-rule="nonzero" d="M2233.7 544h-22a20.48 20.48 0 01-19.22-13.35l-15.05-40.84-25.6-.09a6.8 6.8 0 01-6.83-6.78 6.8 6.8 0 016.83-6.79h25.6c5.8 0 10.97 3.65 12.88 9.1l15.02 40.7a6.82 6.82 0 006.4 4.46h22a6.8 6.8 0 006.83-6.78v-54.28a20.42 20.42 0 0120.48-20.35h34.13a6.8 6.8 0 016.83 6.78 6.8 6.8 0 01-6.83 6.79h-34.13a6.8 6.8 0 00-6.83 6.78v54.28c0 5.4-2.15 10.6-6 14.41a20.55 20.55 0 01-14.51 5.96z"/><path fill="url(#c)" fill-rule="nonzero" d="M2494.94 556a16.9 16.9 0 01-14.17-7.7L2403.13 430v94.45a20.42 20.42 0 01-20.4 20.43h-28.93a6.8 6.8 0 010-13.62h28.92a6.8 6.8 0 006.8-6.81V384.39l102.63 156.49a3.4 3.4 0 006.24-1.86V6.82a6.8 6.8 0 1113.61 0v532.15a16.92 16.92 0 01-17.06 17.03z"/><path fill="#D83F26" fill-rule="nonzero" d="M2331.52 457l-10.99-8.11a33.77 33.77 0 003.11-35.56A34.32 34.32 0 002293 394.6V381c26.51 0 48 21.31 48 47.6a46.88 46.88 0 01-9.48 28.4z"/><path fill="#28A7E9" fill-rule="nonzero" d="M2064.53 543.99H1954.9a59.5 59.5 0 01-30.26-7.53c-6.53-3.26-12.16-6.09-24.16-6.09h-34.02a20.42 20.42 0 01-20.41-20.42V387.42a6.8 6.8 0 00-6.8-6.8H2V367h1837.28c11.27 0 20.41 9.14 20.41 20.42v122.53a6.8 6.8 0 006.8 6.8h34.02a59.5 59.5 0 0130.26 7.53c6.53 3.27 12.17 6.1 24.16 6.1h109.6a6.8 6.8 0 006.4-4.48l13.3-36.56L2097 494l-13.28 36.54a20.41 20.41 0 01-19.19 13.45z"/><circle cx="2504.5" cy="346.5" r="6.5" fill="#F7904D" fill-rule="nonzero"/><circle cx="2477.5" cy="530.5" r="6.5" fill="#F7904D" fill-rule="nonzero"/><circle cx="2341.5" cy="508.5" r="6.5" fill="#F7904D" fill-rule="nonzero"/><path fill="#28A7E9" fill-rule="nonzero" d="M2247.62 530h-35.4a8.17 8.17 0 01-7.69-5.41l-43.02-119.89a17.03 17.03 0 00-16-11.15 17.03 17.03 0 00-16 11.15l-25.9 70.99h35.05v13.57h-35.05c-4.44 0-8.6-2.16-11.15-5.8a13.54 13.54 0 01-1.64-12.42l25.9-70.94a30.65 30.65 0 0128.81-20.1c12.89 0 24.4 8.03 28.8 20.1l41.68 116.32h31.55a6.8 6.8 0 006.82-6.79H2268a20.4 20.4 0 01-20.38 20.37z"/><path fill="url(#d)" fill-rule="nonzero" d="M2462.08 888a6.8 6.8 0 01-6.4-4.46l-142.76-393.92a20.4 20.4 0 00-19.37-14H2150.8a6.8 6.8 0 010-13.62h142.75a34 34 0 0132.29 23.1l142.75 393.79a6.82 6.82 0 01-4.08 8.73c-.78.27-1.6.4-2.43.38z"/><path fill="#FFC20E" fill-rule="nonzero" d="M2332.2 490a6.78 6.78 0 01-6.39-4.57 33.92 33.92 0 00-32.03-22.8 6.8 6.8 0 01-6.78-6.82 6.8 6.8 0 016.78-6.81 47.5 47.5 0 0144.83 31.92 6.77 6.77 0 01-6.4 9.08z"/><circle cx="2219.5" cy="469.5" r="6.5" fill="#56A84F" fill-rule="nonzero"/><circle cx="2359.5" cy="600.5" r="6.5" fill="#56A84F" fill-rule="nonzero"/><circle cx="2246.5" cy="523.5" r="6.5" fill="#2E76BC" fill-rule="nonzero"/><circle cx="2122.5" cy="400.5" r="6.5" fill="#2E76BC" fill-rule="nonzero"/><circle cx="1879.5" cy="523.5" r="6.5" fill="#2E76BC" fill-rule="nonzero"/><circle cx="1838.5" cy="386.5" r="6.5" fill="#5D379E" fill-rule="nonzero"/><circle cx="2049.5" cy="387.5" r="6.5" fill="#4E2C7E" fill-rule="nonzero"/><path fill="#D83F26" fill-rule="nonzero" d="M2138 476h-149.6a20.45 20.45 0 01-20.4-20.5v-41c0-11.32 9.13-20.5 20.4-20.5h54.4v13.67h-54.4a6.82 6.82 0 00-6.8 6.83v41a6.82 6.82 0 006.8 6.83H2138V476z"/><circle cx="2041.5" cy="400.5" r="6.5" fill="#B23E25" fill-rule="nonzero"/><circle cx="2326.5" cy="453.5" r="6.5" fill="#B23E25" fill-rule="nonzero"/><path fill="#744FA0" fill-rule="nonzero" d="M2382.5 558c-3.59 0-6.5-3.04-6.5-6.79V395.8c0-3.75 2.91-6.79 6.5-6.79s6.5 3.04 6.5 6.79V551.2c0 3.75-2.91 6.79-6.5 6.79z"/><circle cx="1689.5" cy="374.5" r="6.5" fill="#2E76BC" fill-rule="nonzero"/><circle cx="1307.5" cy="374.5" r="6.5" fill="#2E76BC" fill-rule="nonzero"/><path fill="#744FA0" fill-rule="nonzero" d="M2382.7 402c-3.7 0-6.7-3.07-6.7-6.86a17.1 17.1 0 0111.95-16.42c7.09-2.17 14.73.68 18.8 7.02a7 7 0 01.58 6.99 6.7 6.7 0 01-5.73 3.85 6.66 6.66 0 01-6.04-3.32 3.31 3.31 0 00-3.77-1.43 3.42 3.42 0 00-2.4 3.31c0 3.8-3 6.86-6.7 6.86z"/><circle cx="2049.5" cy="387.5" r="6.5" fill="#5D379E" fill-rule="nonzero"/><circle cx="1960.5" cy="496.5" r="6.5" fill="#5D379E" fill-rule="nonzero"/><path fill="#28A7E9" fill-rule="nonzero" d="M2096.69 494l-12.69-4.64a20.28 20.28 0 0119.04-13.36H2138v13.55h-34.96a6.76 6.76 0 00-6.35 4.45z"/><circle cx="2382.5" cy="550.5" r="6.5" fill="#4E2C7E" fill-rule="nonzero"/><circle cx="2382.5" cy="550.5" r="6.5" fill="#5D379E" fill-rule="nonzero"/><circle cx="2667.5" cy="400.5" r="6.5" fill="#5D379E" fill-rule="nonzero"/><g fill-rule="nonzero" transform="translate(1968 393)"><path fill="url(#e)" d="M115.41 138.06H20.44A20.46 20.46 0 010 117.58V76.62a20.46 20.46 0 0120.44-20.48h40.88v13.65H20.44a6.82 6.82 0 00-6.81 6.83v40.96a6.82 6.82 0 006.81 6.83h94.97c2.87 0 5.43-1.8 6.4-4.5l39.32-107.98A16.86 16.86 0 01177.12.72a16.85 16.85 0 0116 11.23l15.97 44.02a20.52 20.52 0 01-2.47 18.75 20.43 20.43 0 01-16.74 8.73h-5.95V69.79h5.95a6.8 6.8 0 006.4-9.16L180.3 16.6a3.25 3.25 0 00-3.18-2.24 3.25 3.25 0 00-3.19 2.24L134.61 124.6a20.44 20.44 0 01-19.2 13.46z"/><ellipse cx="110.831" cy="131.234" fill="#56A84F" rx="6.813" ry="6.827"/><ellipse cx="61.319" cy="62.965" fill="#56A84F" rx="6.813" ry="6.827"/></g><g fill-rule="nonzero" transform="translate(2130 462)"><ellipse cx="21.426" cy="20.506" fill="#F7904D" rx="6.824" ry="6.588"/><ellipse cx="7.779" cy="7.329" fill="#B23E25" rx="6.824" ry="6.588"/><ellipse cx="7.779" cy="20.506" fill="#2E76BC" rx="6.824" ry="6.588"/><ellipse cx="21.426" cy="7.329" fill="#56A84F" rx="6.824" ry="6.588"/></g><g fill-rule="nonzero"><path style="mix-blend-mode:multiply" fill="url(#f)" d="M61.54 28.13H90.5l2.47-6.84h-28.9z" opacity=".25" transform="translate(2035 427)"/><path fill="#F2F1F0" d="M2138.21 448.3h-46.66V434.6h42l2.38-6.84h14.52l-5.83 16.02a6.82 6.82 0 01-6.4 4.5z"/><path fill="#F2F1F0" d="M2135.93 427.77a10.57 10.57 0 01-9.2 6.84h6.81l2.39-6.84zM2105.06 427.77c-1.3 3.78 1.85 6.84 5.62 6.84h-8.21l2.59-6.84zM2096.12 455.13c1.3-3.78 7.16-6.84 10.92-6.84h-9.44l-1.48 6.84zM2048.64 516.7h13.63v27.36h-13.63z"/><path style="mix-blend-mode:multiply" fill="url(#g)" d="M.12 89.7h13.64v27.36H.12z" opacity=".25" transform="translate(2035 427)"/><path fill="#F2F1F0" d="M2041.94 516.7c6.82 0 6.82 3 6.82 6.84v-6.84h-6.82zM2069.21 516.7c-6.82 0-6.95 3-6.95 6.84v-6.84h6.95zM2041.94 544.06c6.82 0 6.82-4.48 6.82-8.26v8.26h-6.82z"/></g></g></g></g></svg>
